<?xml version="1.0" encoding="utf-8"?>
<!-- Generator: Adobe Illustrator 21.1.0, SVG Export Plug-In . SVG Version: 6.00 Build 0)  -->
<svg version="1.1" id="Layer_1" xmlns="http://www.w3.org/2000/svg" xmlns:xlink="http://www.w3.org/1999/xlink" x="0px" y="0px"
	 width="400px" height="400px" viewBox="0 0 400 400" style="enable-background:new 0 0 400 400;" xml:space="preserve">
<style type="text/css">
	.st0{fill:#E2231A;}
	.st1{fill:#FFFFFF;}
</style>
<circle class="st0" cx="200" cy="200" r="191.1"/>
<g>
	<path class="st1" d="M181.1,186.2c-5,0-10.7,2.3-14.2,7l0,0l0,0l0-6.3h-12v43.6h12v-24.8c0-4.5,3.5-9.2,9.9-9.2
		c5,0,10.1,3.4,10.1,9.2v24.8h12v-27C198.8,193.5,191.7,186.2,181.1,186.2"/>
	<polygon class="st1" points="284,186.9 273.1,216.6 262.3,186.9 248.6,186.9 266.6,230.5 279.7,230.5 297.6,186.9 	"/>
	<path class="st1" d="M142.2,217.1c-5,3.7-7.9,4.6-12.5,4.6c-4.1,0-7.4-1.3-9.7-3.5l30.6-12.7c-0.7-4.7-2.5-9-5.2-12.2
		c-4-4.7-10-7.1-17.2-7.1c-13.2,0-23.1,9.7-23.1,22.5c0,13.2,10,22.5,24.4,22.5c8.1,0,16.4-3.8,20.3-8.3L142.2,217.1z M119.2,200.1
		c2-2.7,5.3-4.3,9.2-4.3c4.3,0,7.6,2.5,9.3,6.1l-20.9,8.7C116.2,206.1,117.3,202.6,119.2,200.1z"/>
	<polygon class="st1" points="103.9,219.5 76.7,219.5 76.7,173.9 64.6,173.9 64.6,230.5 103.9,230.5 	"/>
	<path class="st1" d="M319.1,231.3c-13.1,0-23.4-9.8-23.4-22.5c0-12.6,10.3-22.5,23.5-22.5c13.1,0,23.4,9.8,23.4,22.5
		C342.7,221.4,332.3,231.3,319.1,231.3 M319.1,196.5c-6.7,0-11.5,5.1-11.5,12.3c0,6.9,5.1,12.3,11.7,12.3c6.7,0,11.5-5.2,11.5-12.3
		C330.8,201.9,325.7,196.5,319.1,196.5"/>
	<path class="st1" d="M226.9,231.3c-13.1,0-23.4-9.8-23.4-22.5c0-12.6,10.3-22.5,23.5-22.5c13.1,0,23.4,9.8,23.4,22.5
		C250.5,221.4,240.1,231.3,226.9,231.3 M226.9,196.5c-6.7,0-11.5,5.1-11.5,12.3c0,6.9,5.1,12.3,11.7,12.3c6.7,0,11.5-5.2,11.5-12.3
		C238.6,201.9,233.5,196.5,226.9,196.5"/>
	<g>
		<path class="st1" d="M344.3,225.4h-1.9v-1.1h5.1v1.1h-1.9v5.2h-1.2V225.4z M348.8,224.3h1.3l1.9,3l1.9-3h1.2v6.3h-1.2v-4.5l-1.9,3
			h-0.1l-1.9-3v4.5h-1.2V224.3z"/>
	</g>
</g>
</svg>
