<?xml version="1.0" standalone="no"?>
<!DOCTYPE svg PUBLIC "-//W3C//DTD SVG 20010904//EN"
 "http://www.w3.org/TR/2001/REC-SVG-20010904/DTD/svg10.dtd">
<svg version="1.0" xmlns="http://www.w3.org/2000/svg"
 width="360.000000pt" height="360.000000pt" viewBox="0 0 360.000000 360.000000"
 preserveAspectRatio="xMidYMid meet">
<metadata>
Created by potrace 1.16, written by Peter Selinger 2001-2019
</metadata>
<g transform="translate(0.000000,360.000000) scale(0.100000,-0.100000)"
fill="#000000" stroke="none">
<path d="M1006 2834 c-248 -60 -424 -304 -402 -556 28 -310 344 -539 639 -462
174 45 311 167 377 339 34 87 34 253 0 340 -99 257 -360 401 -614 339z"/>
<path d="M2390 2843 c-191 -32 -352 -172 -416 -363 -28 -83 -26 -234 5 -323
72 -212 274 -357 496 -357 222 0 424 145 496 357 33 96 33 240 0 336 -82 241
-333 392 -581 350z"/>
<path d="M945 1485 c-229 -36 -405 -121 -566 -272 -79 -75 -154 -171 -199
-254 -30 -56 -30 -59 -30 -208 l0 -151 975 0 975 0 0 150 c0 134 -2 155 -21
193 -65 127 -202 282 -325 367 -225 155 -524 220 -809 175z"/>
<path d="M2288 1485 c-95 -15 -205 -50 -292 -91 l-57 -27 69 -71 c84 -87 145
-169 211 -285 l51 -88 0 -162 0 -161 600 0 600 0 0 145 0 145 -41 67 c-82 135
-191 255 -309 343 -84 63 -242 135 -360 165 -133 33 -340 42 -472 20z"/>
</g>
</svg>
