<svg id="svg" version="1.1" xmlns="http://www.w3.org/2000/svg" xmlns:xlink="http://www.w3.org/1999/xlink" width="400" height="411.7073170731707" viewBox="0, 0, 400,411.7073170731707"><g id="svgg"><path id="path0" d="M33.600 20.402 C 21.960 21.973,13.291 29.107,9.546 40.200 C 8.318 43.834,8.315 51.405,9.533 66.000 C 10.002 71.610,10.575 79.440,10.807 83.400 C 11.039 87.360,11.401 92.400,11.611 94.600 C 11.821 96.800,12.354 104.180,12.794 111.000 C 13.234 117.820,13.695 124.120,13.818 125.000 C 13.941 125.880,14.477 133.080,15.009 141.000 C 16.573 164.297,17.943 183.548,18.370 188.232 C 18.589 190.634,19.049 197.370,19.392 203.200 C 19.736 209.030,20.194 215.330,20.412 217.200 C 20.629 219.070,21.171 226.540,21.616 233.800 C 22.061 241.060,22.502 247.270,22.596 247.600 C 22.690 247.930,23.138 254.140,23.590 261.400 C 24.042 268.660,24.585 276.130,24.796 278.000 C 25.007 279.870,25.472 286.170,25.828 292.000 C 26.184 297.830,26.504 302.626,26.538 302.657 C 26.572 302.688,28.490 301.461,30.800 299.930 C 36.928 295.867,45.531 292.013,48.505 291.997 C 48.777 291.996,49.317 291.439,49.703 290.759 C 50.090 290.079,50.757 289.432,51.185 289.320 C 51.979 289.112,51.991 288.837,51.349 285.600 C 51.031 283.997,48.831 279.673,46.464 276.000 C 42.416 269.719,41.537 267.124,40.607 258.719 C 39.566 249.313,39.650 248.951,43.366 246.854 C 45.638 245.571,48.234 242.624,48.671 240.829 C 49.658 236.769,54.934 232.553,61.000 230.975 C 78.011 226.550,103.811 242.106,96.409 252.324 C 94.938 254.354,95.149 256.329,97.191 259.646 C 99.100 262.750,99.234 264.511,97.684 266.123 L 96.455 267.400 96.328 275.000 C 96.158 285.093,95.642 285.902,87.866 288.284 C 85.575 288.985,85.499 289.056,84.138 291.741 C 83.374 293.249,82.805 294.515,82.874 294.556 C 82.943 294.597,83.990 295.147,85.200 295.778 C 93.387 300.048,106.766 310.631,117.741 321.515 L 124.481 328.200 126.341 326.134 C 127.853 324.453,131.284 319.388,133.405 315.704 C 139.336 305.403,141.595 302.060,145.501 297.800 C 149.555 293.377,150.339 291.380,149.660 287.200 C 149.262 284.752,149.404 274.241,149.845 273.528 C 150.768 272.034,152.844 274.179,153.557 277.362 C 154.167 280.089,154.017 280.087,156.834 277.400 C 159.699 274.668,162.400 274.381,162.400 276.810 C 162.400 277.168,162.850 277.883,163.400 278.400 C 163.950 278.917,164.400 279.566,164.400 279.843 C 164.400 280.120,164.752 280.458,165.182 280.594 C 165.612 280.731,166.188 281.463,166.462 282.221 C 167.076 283.918,167.072 283.918,169.456 282.197 C 172.076 280.307,173.033 279.850,173.774 280.135 C 175.403 280.760,174.390 282.259,169.000 287.200 C 167.680 288.410,166.130 289.940,165.555 290.600 C 164.980 291.260,163.810 292.448,162.955 293.240 C 160.051 295.928,159.388 297.876,159.497 303.400 C 159.662 311.724,157.608 321.512,153.720 330.943 C 152.478 333.955,152.335 333.959,157.000 330.841 C 161.586 327.776,183.007 313.361,195.400 305.001 C 200.020 301.884,209.650 295.405,216.800 290.602 C 223.950 285.799,231.960 280.398,234.600 278.599 C 237.240 276.801,243.810 272.375,249.200 268.765 L 259.000 262.200 213.000 262.000 C 169.903 261.813,166.934 261.755,165.962 261.094 C 163.972 259.742,164.000 260.193,164.000 229.581 L 164.000 200.800 119.700 200.798 C 73.284 200.795,73.287 200.796,71.570 198.968 L 70.600 197.936 70.495 152.968 L 70.390 107.999 71.764 106.500 L 73.138 105.000 95.769 104.887 C 108.216 104.825,118.400 104.924,118.400 105.106 C 118.400 105.288,117.151 106.555,115.625 107.922 C 114.098 109.288,111.930 111.643,110.806 113.154 L 108.763 115.902 105.482 116.078 C 90.604 116.877,84.485 135.446,95.683 145.813 L 98.111 148.061 97.256 149.130 C 86.382 162.730,86.566 181.673,97.676 192.297 L 99.033 193.595 101.616 192.628 C 103.037 192.096,106.059 191.096,108.332 190.406 C 112.420 189.164,117.783 186.788,121.952 184.372 L 124.104 183.124 123.885 180.997 C 123.678 178.999,123.724 178.856,124.633 178.628 C 125.552 178.397,125.600 178.232,125.594 175.292 C 125.587 171.783,125.498 171.567,123.679 170.635 C 121.291 169.411,117.885 165.577,116.047 162.043 C 115.091 160.205,113.993 158.619,113.608 158.518 C 113.035 158.368,112.860 157.700,112.648 154.867 C 112.505 152.960,112.246 150.363,112.073 149.097 C 111.645 145.974,113.129 144.859,116.908 145.464 C 118.257 145.679,118.474 145.602,118.674 144.837 C 118.804 144.342,119.617 143.602,120.551 143.127 C 123.426 141.669,125.697 139.956,129.434 136.429 C 133.487 132.603,136.110 130.895,140.930 128.940 C 145.804 126.963,145.849 126.978,146.189 130.700 C 146.767 137.036,150.046 142.879,152.815 142.507 C 156.514 142.011,158.048 146.875,155.219 150.130 C 154.612 150.828,153.891 152.345,153.617 153.500 C 153.123 155.590,151.600 156.661,151.600 154.920 C 151.600 153.938,151.045 154.619,149.578 157.400 C 148.882 158.720,147.587 160.771,146.700 161.957 L 145.088 164.114 145.744 168.757 C 146.106 171.311,146.401 174.064,146.400 174.875 C 146.400 176.233,146.499 176.359,147.650 176.475 C 148.673 176.577,148.982 176.849,149.350 177.967 C 149.753 179.190,150.053 179.406,152.200 180.013 C 155.216 180.867,159.175 182.522,161.900 184.067 L 164.000 185.259 164.000 177.790 C 164.000 166.219,163.803 166.400,176.360 166.400 C 182.846 166.400,184.800 166.284,184.800 165.900 C 184.799 165.197,182.567 160.558,181.526 159.096 C 180.710 157.951,180.686 157.712,181.129 155.131 C 182.731 145.788,178.661 135.971,170.791 130.193 C 169.519 129.260,168.721 128.344,168.587 127.665 C 166.894 119.109,162.903 111.894,157.480 107.583 C 153.688 104.569,151.550 104.800,183.193 104.800 C 214.154 104.800,213.568 104.759,215.069 107.049 C 215.758 108.100,215.806 109.847,215.902 137.182 L 216.004 166.200 235.802 166.304 L 255.600 166.407 255.600 144.797 L 255.600 123.186 251.100 121.043 C 246.087 118.655,238.448 114.950,223.059 107.444 C 217.371 104.670,212.662 102.400,212.594 102.400 C 212.526 102.400,206.949 99.700,200.200 96.400 C 193.451 93.100,187.877 90.400,187.812 90.400 C 187.748 90.400,183.489 88.353,178.348 85.851 C 167.780 80.709,159.583 76.738,151.400 72.797 C 148.320 71.313,143.010 68.748,139.600 67.097 C 136.190 65.445,130.430 62.657,126.800 60.900 C 116.226 55.784,107.958 51.770,99.600 47.697 C 95.310 45.606,89.820 42.953,87.400 41.800 C 82.510 39.472,74.699 35.690,61.200 29.115 C 43.786 20.633,40.223 19.508,33.600 20.402 M137.280 142.880 C 136.014 144.146,137.283 146.247,138.754 145.321 C 139.658 144.752,139.756 143.813,138.991 143.049 C 138.217 142.274,137.916 142.244,137.280 142.880 M330.120 153.600 C 330.120 154.810,330.195 155.305,330.287 154.700 C 330.378 154.095,330.378 153.105,330.287 152.500 C 330.195 151.895,330.120 152.390,330.120 153.600 M352.501 153.400 C 352.505 154.280,352.587 154.593,352.683 154.095 C 352.779 153.598,352.775 152.878,352.675 152.495 C 352.575 152.113,352.496 152.520,352.501 153.400 M278.100 165.511 C 270.332 165.662,270.581 166.400,278.400 166.400 C 281.882 166.400,284.400 166.242,284.400 166.024 C 284.400 165.420,284.089 165.394,278.100 165.511 M313.621 167.621 C 308.818 171.417,304.618 176.848,303.389 180.850 C 303.026 182.032,302.578 183.360,302.395 183.800 C 302.212 184.240,301.955 185.095,301.823 185.700 C 301.641 186.540,301.350 186.800,300.592 186.800 L 299.600 186.800 299.600 210.643 C 299.600 231.873,299.667 234.460,300.212 234.251 C 300.548 234.122,307.163 229.752,314.912 224.540 C 322.660 219.329,331.160 213.615,333.800 211.843 C 344.101 204.931,348.844 197.748,349.279 188.400 L 349.400 185.800 330.816 185.687 C 316.751 185.602,312.156 185.456,311.922 185.087 C 310.561 182.946,312.236 173.828,315.001 168.324 C 316.315 165.707,316.149 165.623,313.621 167.621 M338.402 166.337 C 336.352 166.949,338.071 170.001,340.805 170.601 C 343.031 171.090,346.581 168.021,345.287 166.727 C 344.716 166.156,339.918 165.885,338.402 166.337 M98.939 352.042 C 99.084 353.669,99.308 357.970,99.435 361.600 C 99.562 365.230,99.735 368.421,99.817 368.691 C 99.986 369.240,113.800 360.163,113.800 359.504 C 113.800 359.284,112.540 358.396,111.000 357.531 C 107.604 355.624,104.646 353.660,101.237 351.048 L 98.674 349.085 98.939 352.042 " stroke="none" fill="#1f347e" fill-rule="evenodd"></path><path id="path1" d="M0.000 205.800 L 0.000 411.600 200.000 411.600 L 400.000 411.600 400.000 205.800 L 400.000 0.000 200.000 0.000 L 0.000 0.000 0.000 205.800 M44.800 21.185 C 46.230 21.675,49.920 23.300,53.000 24.796 C 56.080 26.293,61.120 28.730,64.200 30.213 C 67.280 31.695,72.950 34.438,76.800 36.309 C 80.650 38.180,86.140 40.833,89.000 42.204 C 94.888 45.028,102.922 48.919,114.600 54.605 C 119.000 56.747,124.400 59.355,126.600 60.401 C 128.800 61.446,134.020 63.965,138.200 65.998 C 142.380 68.031,148.140 70.823,151.000 72.202 C 157.816 75.487,167.662 80.256,176.600 84.602 C 180.560 86.527,186.500 89.406,189.800 91.001 C 201.984 96.887,208.383 99.987,215.800 103.594 C 219.980 105.627,225.386 108.242,227.813 109.405 C 230.241 110.569,236.451 113.569,241.613 116.073 C 246.776 118.577,252.210 121.160,253.689 121.813 L 256.378 123.000 256.410 127.400 C 256.428 129.820,256.477 139.450,256.521 148.800 L 256.600 165.800 264.000 165.909 L 271.400 166.018 271.263 163.588 L 271.127 161.158 273.488 158.279 C 278.100 152.657,278.126 152.486,274.956 148.571 C 268.554 140.665,269.275 134.400,276.587 134.400 C 287.194 134.400,293.975 152.236,286.894 161.511 C 286.146 162.491,285.436 163.902,285.315 164.646 L 285.095 166.000 290.800 166.000 C 299.871 166.000,299.994 166.165,299.998 178.300 C 300.000 186.040,300.334 187.700,301.204 184.300 C 303.192 176.540,307.788 170.237,314.993 165.393 C 318.731 162.880,319.231 162.280,319.983 159.400 C 322.877 148.321,327.487 136.476,329.809 134.154 C 332.413 131.551,336.413 134.545,337.092 139.607 L 337.305 141.200 340.953 141.195 L 344.600 141.189 346.050 138.036 C 348.523 132.662,350.271 132.385,352.897 136.952 C 356.083 142.491,359.221 153.317,359.983 161.400 C 360.232 164.040,360.700 168.900,361.022 172.200 C 362.437 186.685,362.393 186.800,355.410 186.800 L 350.049 186.800 349.785 188.700 C 348.819 195.660,346.526 200.845,342.465 205.246 C 339.730 208.211,338.377 209.181,316.000 224.201 C 308.190 229.443,301.350 234.078,300.800 234.502 L 299.800 235.271 299.600 247.194 C 299.325 263.564,301.655 262.000,277.551 262.000 L 259.876 262.000 254.438 265.682 C 249.170 269.249,246.312 271.175,225.000 285.512 C 219.500 289.212,210.770 295.095,205.600 298.587 C 148.482 337.159,151.233 335.396,152.379 332.685 C 157.662 320.193,160.704 302.766,158.255 299.028 C 157.419 297.752,153.124 295.601,150.883 295.335 L 148.943 295.106 145.880 298.159 C 144.195 299.838,142.154 302.244,141.343 303.506 C 139.239 306.782,134.800 314.036,134.800 314.199 C 134.800 315.013,127.808 325.407,126.121 327.100 C 124.368 328.861,124.699 329.037,118.931 323.268 C 104.253 308.588,88.192 296.631,79.000 293.541 C 77.680 293.097,75.340 292.120,73.800 291.369 C 67.453 288.274,51.955 287.895,50.402 290.796 C 50.120 291.323,50.149 291.587,50.503 291.714 C 50.782 291.814,50.412 292.223,49.660 292.646 C 39.256 298.500,33.367 302.395,29.716 305.836 C 28.240 307.227,26.996 308.328,26.951 308.283 C 26.658 307.986,25.518 295.792,24.998 287.400 C 24.657 281.900,24.117 274.250,23.798 270.400 C 23.479 266.550,22.939 259.080,22.598 253.800 C 22.257 248.520,21.715 240.870,21.393 236.800 C 21.072 232.730,20.537 225.170,20.205 220.000 C 19.874 214.830,19.422 208.620,19.201 206.200 C 18.980 203.780,18.441 196.130,18.004 189.200 C 17.566 182.270,17.117 175.970,17.005 175.200 C 16.893 174.430,16.440 168.130,15.997 161.200 C 15.555 154.270,15.019 146.710,14.807 144.400 C 14.595 142.090,14.144 135.880,13.805 130.600 C 13.466 125.320,12.924 117.760,12.601 113.800 C 12.277 109.840,11.646 100.888,11.198 93.906 C 10.749 86.925,10.298 80.715,10.194 80.106 C 9.170 74.114,7.962 46.452,8.577 43.092 C 11.564 26.765,29.468 15.937,44.800 21.185 M127.200 142.333 C 127.200 142.590,126.848 142.800,126.418 142.800 C 125.536 142.800,124.927 144.909,125.389 146.365 C 125.545 146.856,125.478 147.200,125.227 147.200 C 124.991 147.200,124.800 147.968,124.800 148.920 C 124.800 149.866,124.635 150.811,124.433 151.020 C 123.869 151.603,123.737 154.512,124.266 154.689 C 124.518 154.773,124.941 154.157,125.207 153.321 C 125.472 152.484,125.949 151.387,126.266 150.881 C 126.788 150.050,127.726 142.432,127.355 142.033 C 127.270 141.942,127.200 142.077,127.200 142.333 M151.829 146.629 C 151.132 147.325,150.973 149.812,151.600 150.200 C 151.820 150.336,152.000 151.622,152.000 153.057 C 152.000 156.340,152.778 156.342,153.436 153.061 C 153.687 151.808,154.187 150.457,154.546 150.059 C 156.380 148.033,153.748 144.709,151.829 146.629 M329.133 149.883 C 324.924 152.495,326.067 158.000,330.818 158.000 C 335.118 158.000,336.225 152.923,332.554 150.035 C 331.282 149.035,330.552 149.003,329.133 149.883 M350.599 150.974 C 348.384 153.323,348.574 155.439,351.136 156.935 C 353.856 158.524,356.185 156.024,355.442 152.312 C 354.853 149.364,352.683 148.764,350.599 150.974 M331.007 151.623 C 331.402 152.866,330.814 156.400,330.212 156.400 C 329.538 156.400,329.198 154.584,329.479 152.484 C 329.721 150.684,330.559 150.212,331.007 151.623 M353.357 151.833 C 354.011 153.538,353.359 156.393,352.445 155.828 C 351.763 155.406,351.865 151.200,352.557 151.200 C 352.864 151.200,353.224 151.485,353.357 151.833 M113.019 155.938 C 112.710 157.716,113.132 158.736,113.965 158.222 C 114.532 157.871,114.490 156.890,113.843 155.400 L 113.321 154.200 113.019 155.938 M178.079 171.126 C 177.390 171.585,177.583 176.465,178.300 176.702 C 178.612 176.804,178.800 176.486,178.800 175.857 C 178.800 175.302,179.007 174.719,179.261 174.562 C 179.699 174.291,180.028 174.604,181.053 176.265 C 181.738 177.376,182.176 176.591,181.620 175.249 C 181.244 174.340,181.241 173.872,181.606 173.190 C 182.376 171.750,179.590 170.118,178.079 171.126 M183.467 171.067 C 183.320 171.213,183.200 172.563,183.200 174.067 L 183.200 176.800 185.000 176.800 C 185.990 176.800,186.800 176.620,186.800 176.400 C 186.800 176.180,186.260 176.000,185.600 176.000 C 184.667 176.000,184.400 175.822,184.400 175.200 C 184.400 174.613,184.667 174.400,185.400 174.400 C 186.642 174.400,186.725 173.702,185.504 173.528 C 184.033 173.318,184.090 172.000,185.571 172.000 C 186.877 172.000,187.222 171.447,186.167 171.043 C 185.326 170.720,183.800 170.734,183.467 171.067 M189.200 171.307 C 188.048 171.897,187.546 175.172,188.442 176.251 C 188.988 176.909,192.026 176.870,191.997 176.205 C 191.988 175.988,191.447 175.867,190.795 175.935 C 189.847 176.034,189.516 175.853,189.141 175.030 C 188.420 173.447,189.224 172.000,190.825 172.000 C 191.639 172.000,192.010 171.828,191.902 171.500 C 191.670 170.796,190.380 170.704,189.200 171.307 M180.506 172.239 C 180.887 172.621,180.366 173.600,179.781 173.600 C 179.111 173.600,178.674 172.928,179.000 172.400 C 179.273 171.958,180.133 171.866,180.506 172.239 M137.075 177.248 C 136.739 177.772,135.806 179.910,135.002 182.000 C 131.299 191.620,129.322 196.248,129.192 195.600 C 129.170 195.490,128.905 191.642,128.604 187.048 C 128.010 177.998,127.936 177.733,126.245 178.611 C 125.620 178.935,124.853 179.200,124.541 179.200 C 124.093 179.200,124.027 179.608,124.227 181.117 C 124.563 183.648,124.668 183.559,116.600 187.549 C 113.944 188.862,109.834 190.487,107.400 191.185 C 99.833 193.355,89.794 198.068,88.590 200.016 C 88.439 200.260,102.084 200.400,126.176 200.400 L 164.000 200.400 164.000 193.096 C 164.000 185.958,163.980 185.779,163.100 185.219 C 161.076 183.931,155.881 181.604,152.647 180.537 C 149.756 179.583,149.201 179.263,149.201 178.549 C 149.199 176.387,138.373 175.226,137.075 177.248 M208.967 205.606 C 205.814 206.583,205.927 215.449,209.115 217.155 C 213.963 219.749,218.120 218.329,220.426 213.293 C 222.169 209.483,223.828 209.414,224.651 213.117 C 225.656 217.641,227.252 218.793,232.513 218.798 C 237.109 218.802,239.187 217.104,240.174 212.541 C 240.494 211.057,241.131 210.817,244.800 210.797 C 246.976 210.785,250.985 209.266,249.000 209.206 C 246.442 209.128,241.338 208.241,239.955 207.633 C 237.413 206.517,232.404 206.199,227.172 206.821 C 222.954 207.323,222.582 207.305,218.923 206.423 C 214.531 205.364,210.750 205.054,208.967 205.606 M218.112 207.890 C 221.697 209.975,218.800 216.800,214.330 216.800 C 209.683 216.800,206.730 212.268,208.826 208.351 C 209.752 206.622,215.446 206.339,218.112 207.890 M235.578 208.159 C 238.683 209.281,239.255 214.127,236.596 216.786 C 234.557 218.824,228.218 217.956,226.928 215.462 C 225.782 213.245,225.723 209.377,226.825 208.787 C 229.132 207.552,233.109 207.267,235.578 208.159 M217.300 226.328 C 214.921 226.666,218.577 230.938,221.639 231.397 C 225.381 231.958,230.954 227.790,227.500 227.013 C 226.140 226.707,218.327 226.182,217.300 226.328 M100.744 349.900 C 103.891 352.484,107.664 354.908,113.854 358.322 C 115.465 359.211,115.014 359.663,107.496 364.704 C 98.860 370.492,99.201 370.402,99.196 366.900 C 99.193 364.058,98.594 354.604,98.171 350.700 C 97.868 347.904,98.191 347.803,100.744 349.900 " stroke="none" fill="#f1f2f4" fill-rule="evenodd"></path><path id="path2" d="M114.947 108.100 C 113.472 109.475,111.468 111.680,110.495 113.000 L 108.724 115.400 106.262 115.631 L 103.800 115.862 106.245 115.931 L 108.690 116.000 110.755 113.222 C 111.891 111.695,114.029 109.355,115.505 108.022 C 116.981 106.690,118.063 105.600,117.909 105.600 C 117.755 105.600,116.422 106.725,114.947 108.100 M155.420 105.932 C 155.629 106.114,156.660 106.950,157.711 107.789 C 160.076 109.677,163.041 113.370,164.947 116.800 C 165.741 118.230,166.393 119.235,166.395 119.032 C 166.423 116.815,157.223 105.600,155.377 105.600 C 155.192 105.600,155.211 105.749,155.420 105.932 M215.789 137.600 C 215.789 153.110,215.839 159.455,215.900 151.700 C 215.961 143.945,215.961 131.255,215.900 123.500 C 215.839 115.745,215.789 122.090,215.789 137.600 M99.500 117.029 C 98.895 117.357,98.400 117.701,98.400 117.792 C 98.400 117.962,101.262 116.846,101.567 116.558 C 101.995 116.152,100.480 116.497,99.500 117.029 M95.932 119.319 C 94.270 120.587,91.200 124.497,91.200 125.347 C 91.200 125.572,91.718 124.956,92.350 123.978 C 93.665 121.947,95.738 119.696,97.200 118.714 C 97.750 118.344,98.079 118.033,97.931 118.021 C 97.783 118.009,96.884 118.594,95.932 119.319 M166.822 120.800 C 166.816 120.910,167.174 122.080,167.617 123.400 C 168.265 125.333,168.373 125.490,168.175 124.208 C 167.974 122.906,166.858 120.095,166.822 120.800 M90.031 128.262 C 89.438 130.401,89.548 135.878,90.224 137.800 C 90.533 138.680,90.684 138.950,90.559 138.400 C 90.034 136.090,89.925 130.720,90.368 128.960 C 90.934 126.712,90.634 126.091,90.031 128.262 M143.400 128.019 C 142.823 128.280,143.009 128.317,144.067 128.152 C 145.373 127.948,145.554 128.026,145.713 128.862 C 145.875 129.714,145.896 129.699,145.946 128.700 C 146.004 127.512,145.071 127.262,143.400 128.019 M170.200 129.634 C 172.935 131.665,177.087 136.349,178.407 138.896 C 179.164 140.356,179.849 141.484,179.930 141.403 C 180.839 140.494,173.256 131.064,170.336 129.472 L 169.000 128.743 170.200 129.634 M330.287 134.710 C 327.816 137.288,325.450 143.400,320.624 159.664 L 319.596 163.129 316.298 165.302 C 310.962 168.817,306.638 173.265,304.439 177.500 C 303.561 179.191,304.287 178.403,305.912 175.900 C 308.200 172.377,315.220 165.487,315.864 166.131 C 315.951 166.218,315.563 167.205,315.001 168.324 C 312.234 173.832,310.562 182.946,311.924 185.090 C 312.162 185.466,316.592 185.588,330.739 185.612 C 346.491 185.638,349.275 185.729,349.464 186.221 C 349.642 186.686,350.732 186.800,354.993 186.800 L 360.300 186.800 360.550 185.550 C 361.293 181.837,359.783 162.029,358.145 154.000 C 356.763 147.226,352.707 136.726,350.808 135.007 C 349.357 133.694,347.721 135.254,346.201 139.400 C 345.184 142.174,345.296 142.117,340.923 142.088 L 337.000 142.061 336.369 139.531 C 335.043 134.216,332.609 132.286,330.287 134.710 M128.800 137.000 C 127.161 138.650,125.910 140.000,126.020 140.000 C 126.130 140.000,127.561 138.650,129.200 137.000 C 130.839 135.350,132.090 134.000,131.980 134.000 C 131.870 134.000,130.439 135.350,128.800 137.000 M274.849 135.201 C 269.766 136.401,270.072 141.453,275.650 148.400 C 278.139 151.500,278.358 152.284,277.386 154.600 C 277.077 155.336,277.112 155.354,277.825 154.819 C 278.502 154.312,278.535 154.312,278.080 154.819 C 277.794 155.139,277.394 155.400,277.191 155.400 C 276.381 155.400,271.600 161.684,271.605 162.741 C 271.621 165.717,271.434 165.637,278.208 165.579 L 284.315 165.527 284.555 164.324 C 284.688 163.662,285.257 162.573,285.820 161.903 C 290.736 156.062,290.299 147.296,284.714 139.695 C 282.629 136.857,278.598 134.508,276.400 134.851 C 276.290 134.868,275.592 135.025,274.849 135.201 M147.228 136.600 C 147.228 136.820,147.486 137.450,147.800 138.000 C 148.114 138.550,148.372 138.820,148.372 138.600 C 148.372 138.380,148.114 137.750,147.800 137.200 C 147.486 136.650,147.228 136.380,147.228 136.600 M136.586 138.381 C 136.138 138.562,135.532 139.000,135.238 139.354 C 134.808 139.873,135.062 139.839,136.551 139.180 C 138.670 138.243,140.829 138.429,142.055 139.655 C 142.465 140.065,142.800 140.233,142.800 140.029 C 142.800 138.542,138.803 137.482,136.586 138.381 M124.081 140.972 C 122.223 142.285,121.962 142.661,123.531 141.762 C 124.263 141.343,125.050 140.775,125.280 140.500 C 125.871 139.793,125.593 139.902,124.081 140.972 M180.226 142.684 C 180.346 143.170,180.704 144.700,181.023 146.084 L 181.601 148.600 181.380 146.446 C 181.258 145.261,180.899 143.731,180.583 143.046 C 180.267 142.361,180.106 142.198,180.226 142.684 M120.351 143.201 C 119.554 143.622,118.800 144.356,118.676 144.832 C 118.490 145.541,118.225 145.665,117.212 145.516 C 116.463 145.406,116.119 145.479,116.341 145.701 C 116.966 146.326,118.580 145.845,118.990 144.911 C 119.205 144.422,119.883 143.814,120.499 143.559 C 121.114 143.304,121.714 142.939,121.832 142.748 C 122.118 142.285,122.038 142.310,120.351 143.201 M136.880 142.880 C 136.327 143.433,136.237 145.052,136.742 145.364 C 136.930 145.481,136.999 145.130,136.895 144.586 C 136.791 144.041,136.929 143.326,137.202 142.998 C 137.794 142.284,137.561 142.199,136.880 142.880 M138.971 143.029 C 139.317 143.374,139.600 143.854,139.600 144.095 C 139.600 144.336,139.705 144.429,139.832 144.301 C 140.156 143.977,139.264 142.400,138.757 142.400 C 138.529 142.400,138.626 142.683,138.971 143.029 M93.506 144.171 C 93.926 144.705,94.884 145.637,95.635 146.243 C 96.555 146.985,96.353 146.669,95.015 145.272 C 92.886 143.050,92.270 142.601,93.506 144.171 M95.931 150.363 C 94.564 151.969,93.006 154.400,93.345 154.400 C 93.449 154.400,93.946 153.735,94.449 152.922 C 94.951 152.108,95.884 150.848,96.523 150.122 C 97.161 149.395,97.588 148.800,97.473 148.800 C 97.357 148.800,96.663 149.504,95.931 150.363 M333.539 150.591 C 335.826 153.196,335.576 156.551,333.003 157.772 C 329.723 159.328,326.400 157.658,326.400 154.452 C 326.400 149.895,330.826 147.502,333.539 150.591 M354.574 149.971 C 356.193 151.760,356.092 156.295,354.413 157.193 C 352.195 158.380,348.800 156.576,348.800 154.211 C 348.800 150.851,352.747 147.952,354.574 149.971 M330.239 153.300 L 330.329 155.800 330.015 153.800 L 329.700 151.800 329.750 153.800 C 329.822 156.664,330.577 156.274,330.719 153.300 C 330.785 151.925,330.683 150.800,330.494 150.800 C 330.304 150.800,330.190 151.925,330.239 153.300 M352.600 153.438 C 352.600 154.627,352.735 155.600,352.900 155.600 C 353.065 155.600,353.200 154.711,353.200 153.624 C 353.200 152.537,353.065 151.564,352.900 151.462 C 352.735 151.360,352.600 152.249,352.600 153.438 M150.856 154.255 C 150.376 155.327,150.386 155.358,151.018 154.739 C 151.389 154.376,151.620 153.860,151.531 153.594 C 151.442 153.327,151.139 153.625,150.856 154.255 M181.057 155.100 C 180.665 157.472,180.761 158.133,181.656 159.200 L 182.495 160.200 181.807 159.053 C 181.272 158.159,181.179 157.430,181.389 155.753 C 181.693 153.315,181.436 152.808,181.057 155.100 M92.181 156.037 C 91.829 156.718,91.612 157.345,91.699 157.432 C 91.786 157.519,92.156 156.962,92.522 156.195 C 93.344 154.470,93.059 154.338,92.181 156.037 M343.840 157.665 C 344.111 158.103,342.688 159.600,342.000 159.600 C 341.829 159.600,341.280 159.269,340.781 158.865 C 339.574 157.888,340.078 157.200,342.000 157.200 C 342.854 157.200,343.682 157.409,343.840 157.665 M147.200 160.800 C 146.730 161.460,146.436 162.000,146.546 162.000 C 146.656 162.000,147.130 161.460,147.600 160.800 C 148.070 160.140,148.364 159.600,148.254 159.600 C 148.144 159.600,147.670 160.140,147.200 160.800 M90.026 161.462 C 89.788 162.308,89.499 163.720,89.385 164.600 C 89.268 165.496,89.533 164.894,89.987 163.232 C 90.433 161.600,90.722 160.188,90.628 160.095 C 90.535 160.001,90.264 160.617,90.026 161.462 M183.281 162.191 C 183.759 163.176,184.219 163.914,184.303 163.830 C 184.484 163.649,182.868 160.400,182.597 160.400 C 182.494 160.400,182.802 161.206,183.281 162.191 M145.432 163.165 C 144.997 163.645,144.803 164.352,144.910 165.065 L 145.080 166.200 145.140 165.031 C 145.173 164.389,145.498 163.534,145.862 163.131 C 146.226 162.729,146.434 162.400,146.324 162.400 C 146.214 162.400,145.813 162.744,145.432 163.165 M345.287 166.727 C 346.581 168.021,343.031 171.090,340.805 170.601 C 339.360 170.284,337.111 168.156,337.282 167.267 C 337.522 166.023,344.136 165.576,345.287 166.727 M118.800 166.525 C 118.800 166.594,119.385 167.179,120.100 167.825 L 121.400 169.000 120.225 167.700 C 119.130 166.488,118.800 166.216,118.800 166.525 M88.944 170.800 C 88.944 172.890,89.012 173.745,89.094 172.700 C 89.176 171.655,89.176 169.945,89.094 168.900 C 89.012 167.855,88.944 168.710,88.944 170.800 M125.506 174.119 C 125.702 178.447,125.885 178.989,125.939 175.400 C 125.966 173.640,125.850 171.983,125.682 171.719 C 125.514 171.454,125.435 172.534,125.506 174.119 M225.802 174.230 C 224.264 174.536,222.947 174.959,222.877 175.170 C 222.806 175.382,222.524 175.469,222.249 175.363 C 221.006 174.887,214.527 178.791,211.235 182.000 C 207.242 185.893,202.929 194.074,203.747 196.205 C 203.881 196.555,203.827 196.741,203.628 196.617 C 203.102 196.292,202.654 201.273,202.936 204.299 C 203.273 207.905,204.955 213.155,206.516 215.475 C 207.411 216.805,207.990 218.316,208.332 220.214 C 208.911 223.422,209.335 224.712,212.104 231.691 C 213.215 234.491,214.434 237.115,214.813 237.522 C 215.192 237.929,215.623 238.642,215.770 239.106 C 215.918 239.571,216.660 240.496,217.419 241.163 C 219.068 242.611,219.075 242.684,217.800 245.200 C 216.103 248.549,217.068 250.272,222.028 252.751 C 230.254 256.861,247.997 248.247,244.999 241.599 C 244.609 240.733,243.979 238.715,243.599 237.113 L 242.909 234.200 244.803 231.800 C 245.845 230.480,247.285 228.230,248.003 226.800 C 248.814 225.184,250.298 223.219,251.924 221.607 C 254.789 218.766,257.648 213.513,257.720 210.954 C 257.741 210.209,257.878 209.600,258.024 209.600 C 258.519 209.600,259.200 205.083,259.200 201.800 C 259.200 198.234,258.506 194.000,257.921 194.000 C 257.719 194.000,257.654 193.837,257.777 193.637 C 258.127 193.072,256.351 188.783,255.886 189.070 C 255.661 189.210,255.593 189.135,255.736 188.904 C 256.162 188.214,252.939 183.798,250.134 181.228 C 243.406 175.063,234.505 172.503,225.802 174.230 M89.392 176.600 C 89.623 178.438,90.392 181.341,90.595 181.138 C 90.670 181.062,90.385 179.650,89.962 178.000 C 89.538 176.350,89.282 175.720,89.392 176.600 M303.064 180.476 C 302.033 183.342,301.867 184.129,302.357 183.826 C 302.601 183.676,302.808 183.248,302.818 182.876 C 302.827 182.504,303.089 181.487,303.400 180.615 C 303.710 179.744,303.901 178.968,303.824 178.891 C 303.748 178.814,303.406 179.527,303.064 180.476 M91.600 183.753 C 91.600 184.182,92.790 186.400,93.021 186.400 C 93.131 186.400,92.923 185.815,92.559 185.100 C 91.817 183.640,91.600 183.336,91.600 183.753 M93.757 187.900 C 94.466 189.249,97.929 193.340,98.549 193.560 C 98.797 193.649,98.184 192.839,97.187 191.760 C 96.190 190.682,94.961 189.125,94.455 188.300 C 93.387 186.560,92.909 186.285,93.757 187.900 M78.120 200.698 C 80.055 200.772,83.115 200.771,84.920 200.697 C 86.724 200.623,85.140 200.563,81.400 200.564 C 77.660 200.564,76.184 200.625,78.120 200.698 M219.148 206.074 C 222.734 206.790,223.665 206.840,226.025 206.451 C 230.418 205.725,237.954 206.276,241.326 207.568 C 241.945 207.806,242.868 208.000,243.377 208.000 C 243.886 208.000,245.602 208.294,247.192 208.653 L 250.081 209.305 248.941 210.238 C 247.987 211.019,247.331 211.174,244.933 211.186 C 241.758 211.202,240.800 211.435,240.800 212.193 C 240.800 213.395,238.759 217.163,237.563 218.170 C 234.094 221.088,225.823 219.052,224.754 215.017 C 223.419 209.975,222.683 209.795,220.532 213.985 C 218.116 218.692,215.247 219.858,210.260 218.159 C 207.995 217.387,207.394 216.403,206.784 212.469 C 205.593 204.795,207.579 203.767,219.148 206.074 M211.000 207.471 C 208.608 208.103,207.923 211.780,209.704 214.424 C 211.168 216.595,215.445 217.177,217.300 215.458 C 218.386 214.452,219.512 210.589,219.062 209.416 C 218.576 208.150,213.273 206.870,211.000 207.471 M229.121 208.380 C 226.237 208.940,225.494 211.457,227.216 214.832 C 228.556 217.458,234.178 218.403,236.234 216.348 C 240.815 211.767,236.508 206.943,229.121 208.380 M223.094 225.996 C 228.747 226.506,229.775 227.230,228.147 229.554 C 225.400 233.476,216.000 231.646,216.000 227.189 C 216.000 225.606,216.965 225.443,223.094 225.996 M65.600 230.289 C 57.728 230.732,49.949 235.575,48.671 240.829 C 48.234 242.624,45.638 245.571,43.366 246.854 C 39.650 248.951,39.566 249.313,40.607 258.719 C 41.537 267.124,42.416 269.719,46.464 276.000 C 49.103 280.096,51.104 284.141,51.420 286.019 C 51.982 289.354,51.703 289.111,54.491 288.703 C 56.960 288.342,66.008 288.586,67.918 289.065 C 69.219 289.392,73.237 285.194,77.207 279.363 C 80.595 274.385,80.954 273.044,79.471 270.898 C 77.722 268.365,77.099 266.427,77.290 264.118 C 77.856 257.298,83.285 260.358,84.443 268.149 C 84.939 271.481,85.214 271.606,86.853 269.240 C 87.845 267.810,87.895 267.513,87.714 264.160 C 87.455 259.382,87.697 258.908,91.757 256.262 C 96.109 253.425,97.600 251.475,97.600 248.619 C 97.600 239.272,80.458 229.452,65.600 230.289 M96.015 258.200 C 96.017 258.420,96.386 259.050,96.836 259.600 C 97.379 260.264,97.515 260.331,97.240 259.800 C 96.566 258.495,96.012 257.772,96.015 258.200 M202.600 261.893 C 235.055 262.169,259.106 262.172,258.938 261.900 C 258.836 261.735,243.328 261.642,224.476 261.694 C 205.624 261.746,195.780 261.836,202.600 261.893 M97.441 265.700 C 96.804 266.314,96.367 266.900,96.470 267.004 C 96.574 267.107,97.172 266.655,97.800 266.000 C 99.263 264.473,98.970 264.227,97.441 265.700 M96.124 272.600 C 96.126 273.920,96.201 274.412,96.290 273.693 C 96.379 272.974,96.377 271.894,96.286 271.293 C 96.195 270.692,96.122 271.280,96.124 272.600 " stroke="none" fill="#86573f" fill-rule="evenodd"></path><path id="path3" d="M33.100 20.282 C 33.595 20.378,34.405 20.378,34.900 20.282 C 35.395 20.187,34.990 20.109,34.000 20.109 C 33.010 20.109,32.605 20.187,33.100 20.282 M37.900 20.282 C 38.395 20.378,39.205 20.378,39.700 20.282 C 40.195 20.187,39.790 20.109,38.800 20.109 C 37.810 20.109,37.405 20.187,37.900 20.282 M28.258 21.052 C 25.351 21.945,26.212 22.066,29.412 21.214 C 30.945 20.806,31.750 20.469,31.200 20.464 C 30.650 20.459,29.326 20.724,28.258 21.052 M43.400 21.194 C 44.940 21.592,46.263 21.859,46.339 21.786 C 46.571 21.567,42.317 20.397,41.427 20.435 C 40.972 20.455,41.860 20.796,43.400 21.194 M48.539 23.046 C 49.606 23.601,50.566 23.968,50.672 23.861 C 50.861 23.673,47.350 21.981,46.849 22.019 C 46.712 22.029,47.473 22.491,48.539 23.046 M23.500 23.029 C 21.949 23.870,22.125 24.161,23.700 23.359 C 25.208 22.593,25.475 22.394,24.967 22.416 C 24.765 22.425,24.105 22.701,23.500 23.029 M19.731 25.449 C 14.413 29.439,9.933 35.875,9.043 40.800 C 8.904 41.570,9.292 40.846,9.905 39.191 C 11.886 33.842,14.976 29.519,18.979 26.498 C 21.859 24.324,22.239 24.000,21.911 24.000 C 21.773 24.000,20.792 24.652,19.731 25.449 M52.033 24.551 C 52.442 24.921,55.600 26.395,55.600 26.216 C 55.600 25.989,52.581 24.400,52.149 24.400 C 51.994 24.400,51.942 24.468,52.033 24.551 M58.539 27.846 C 59.606 28.401,60.558 28.776,60.655 28.679 C 60.844 28.490,57.412 26.788,56.904 26.819 C 56.737 26.829,57.473 27.291,58.539 27.846 M61.200 28.997 C 61.200 29.268,64.449 30.884,64.630 30.703 C 64.714 30.619,63.976 30.159,62.991 29.681 C 62.006 29.202,61.200 28.894,61.200 28.997 M69.000 32.879 C 72.594 34.719,74.800 35.694,74.800 35.441 C 74.800 35.236,66.426 31.192,66.059 31.220 C 65.917 31.231,67.240 31.977,69.000 32.879 M76.176 36.361 C 76.411 36.742,78.800 37.678,78.800 37.389 C 78.800 37.195,76.561 36.000,76.196 36.000 C 76.062 36.000,76.053 36.162,76.176 36.361 M83.200 39.800 C 85.510 40.987,87.580 41.959,87.800 41.959 C 88.020 41.959,86.310 40.987,84.000 39.800 C 81.690 38.613,79.620 37.641,79.400 37.641 C 79.180 37.641,80.890 38.613,83.200 39.800 M92.800 44.400 C 94.890 45.478,96.780 46.359,97.000 46.359 C 97.220 46.359,95.690 45.478,93.600 44.400 C 91.510 43.322,89.620 42.441,89.400 42.441 C 89.180 42.441,90.710 43.322,92.800 44.400 M8.137 48.200 C 8.139 49.960,8.209 50.630,8.293 49.689 C 8.378 48.749,8.377 47.309,8.291 46.489 C 8.205 45.670,8.136 46.440,8.137 48.200 M98.600 47.142 C 98.820 47.371,99.720 47.854,100.600 48.216 C 101.480 48.578,102.020 48.687,101.800 48.458 C 101.580 48.229,100.680 47.746,99.800 47.384 C 98.920 47.022,98.380 46.913,98.600 47.142 M103.258 49.391 C 103.582 49.715,110.810 53.201,111.114 53.180 C 111.489 53.153,103.911 49.247,103.433 49.220 C 103.232 49.209,103.153 49.286,103.258 49.391 M8.520 54.800 C 8.520 56.010,8.595 56.505,8.687 55.900 C 8.778 55.295,8.778 54.305,8.687 53.700 C 8.595 53.095,8.520 53.590,8.520 54.800 M111.600 53.376 C 111.600 53.478,112.275 53.871,113.100 54.248 C 113.925 54.626,114.780 55.021,115.000 55.126 C 115.267 55.254,115.267 55.171,115.000 54.880 C 114.553 54.390,111.600 53.084,111.600 53.376 M116.454 55.787 C 116.777 56.110,124.814 60.001,125.114 59.979 C 125.488 59.953,117.112 55.647,116.633 55.621 C 116.432 55.609,116.351 55.684,116.454 55.787 M8.920 60.800 C 8.920 62.010,8.995 62.505,9.087 61.900 C 9.178 61.295,9.178 60.305,9.087 59.700 C 8.995 59.095,8.920 59.590,8.920 60.800 M126.494 60.627 C 126.932 61.065,138.116 66.417,138.271 66.263 C 138.421 66.112,126.944 60.400,126.490 60.400 C 126.367 60.400,126.369 60.502,126.494 60.627 M9.263 65.600 C 9.238 66.590,9.480 70.820,9.803 75.000 C 10.125 79.180,10.391 83.035,10.394 83.567 C 10.397 84.098,10.508 84.426,10.639 84.294 C 10.881 84.052,10.198 72.293,9.623 66.800 C 9.390 64.575,9.297 64.265,9.263 65.600 M140.455 67.388 C 141.053 67.986,153.200 73.711,153.200 73.395 C 153.200 73.222,140.830 67.200,140.474 67.200 C 140.360 67.200,140.351 67.285,140.455 67.388 M157.342 75.645 C 159.510 76.748,161.357 77.577,161.446 77.487 C 161.621 77.312,154.136 73.587,153.677 73.620 C 153.525 73.632,155.174 74.543,157.342 75.645 M162.800 78.186 C 162.800 78.351,171.482 82.625,174.300 83.847 C 177.247 85.125,175.301 83.917,171.300 81.986 C 165.442 79.158,162.800 77.977,162.800 78.186 M176.976 85.161 C 177.211 85.542,179.600 86.478,179.600 86.189 C 179.600 85.995,177.361 84.800,176.996 84.800 C 176.862 84.800,176.853 84.962,176.976 85.161 M183.000 88.079 C 186.389 89.814,189.154 91.044,188.769 90.644 C 188.436 90.299,180.403 86.396,180.075 86.420 C 179.924 86.431,181.240 87.177,183.000 88.079 M10.914 88.600 C 10.917 89.700,10.995 90.103,11.087 89.495 C 11.179 88.886,11.177 87.986,11.082 87.495 C 10.987 87.003,10.911 87.500,10.914 88.600 M193.600 93.200 C 195.690 94.278,197.580 95.159,197.800 95.159 C 198.020 95.159,196.490 94.278,194.400 93.200 C 192.310 92.122,190.420 91.241,190.200 91.241 C 189.980 91.241,191.510 92.122,193.600 93.200 M11.481 97.000 C 11.599 99.640,11.931 104.590,12.220 108.000 L 12.744 114.200 12.538 108.600 C 12.424 105.520,12.092 100.570,11.799 97.600 L 11.268 92.200 11.481 97.000 M200.000 96.211 C 200.000 96.405,202.239 97.600,202.604 97.600 C 202.738 97.600,202.747 97.438,202.624 97.239 C 202.389 96.858,200.000 95.922,200.000 96.211 M208.000 100.200 C 210.310 101.387,212.380 102.359,212.600 102.359 C 212.820 102.359,211.110 101.387,208.800 100.200 C 206.490 99.013,204.420 98.041,204.200 98.041 C 203.980 98.041,205.690 99.013,208.000 100.200 M213.233 102.551 C 213.642 102.921,216.800 104.395,216.800 104.216 C 216.800 103.989,213.781 102.400,213.349 102.400 C 213.194 102.400,213.142 102.468,213.233 102.551 M80.200 105.087 C 95.329 105.363,118.400 105.371,118.400 105.100 C 118.400 104.935,108.455 104.840,96.300 104.889 C 84.145 104.938,76.900 105.027,80.200 105.087 M155.020 105.100 C 155.229 105.265,168.180 105.308,183.800 105.195 L 212.200 104.989 183.420 104.895 C 167.591 104.843,154.811 104.935,155.020 105.100 M219.200 105.600 C 219.970 106.022,220.780 106.366,221.000 106.366 C 221.220 106.366,220.770 106.022,220.000 105.600 C 219.230 105.178,218.420 104.834,218.200 104.834 C 217.980 104.834,218.430 105.178,219.200 105.600 M71.601 106.598 C 71.086 107.148,70.739 107.664,70.832 107.746 C 70.924 107.828,71.419 107.378,71.930 106.747 C 73.076 105.335,72.874 105.244,71.601 106.598 M222.400 106.997 C 222.400 107.268,225.649 108.884,225.830 108.703 C 225.914 108.619,225.176 108.159,224.191 107.681 C 223.206 107.202,222.400 106.894,222.400 106.997 M227.233 109.351 C 227.642 109.721,230.800 111.195,230.800 111.016 C 230.800 110.789,227.781 109.200,227.349 109.200 C 227.194 109.200,227.142 109.268,227.233 109.351 M233.200 112.400 C 234.410 113.039,235.580 113.562,235.800 113.562 C 236.020 113.562,235.210 113.039,234.000 112.400 C 232.790 111.761,231.620 111.238,231.400 111.238 C 231.180 111.238,231.990 111.761,233.200 112.400 M236.400 113.811 C 236.400 114.005,238.639 115.200,239.004 115.200 C 239.138 115.200,239.147 115.038,239.024 114.839 C 238.789 114.458,236.400 113.522,236.400 113.811 M12.920 116.400 C 12.920 117.610,12.995 118.105,13.087 117.500 C 13.178 116.895,13.178 115.905,13.087 115.300 C 12.995 114.695,12.920 115.190,12.920 116.400 M241.265 116.198 C 241.587 116.521,249.626 120.402,249.925 120.379 C 250.291 120.352,241.904 116.047,241.433 116.021 C 241.232 116.009,241.156 116.089,241.265 116.198 M13.320 122.400 C 13.320 123.610,13.395 124.105,13.487 123.500 C 13.578 122.895,13.578 121.905,13.487 121.300 C 13.395 120.695,13.320 121.190,13.320 122.400 M250.400 120.591 C 250.400 120.701,251.570 121.323,253.000 121.971 L 255.600 123.150 255.600 144.772 L 255.600 166.394 211.777 166.389 C 172.470 166.385,167.814 166.451,166.607 167.023 C 164.295 168.121,164.000 169.337,164.000 177.775 L 164.000 185.228 163.100 184.791 L 162.200 184.355 163.100 185.142 C 163.971 185.903,164.000 186.160,164.000 193.162 L 164.000 200.396 125.900 200.500 L 87.800 200.604 125.900 200.702 L 164.000 200.800 164.000 229.620 C 164.000 261.448,163.891 260.088,166.543 261.346 C 167.716 261.903,169.581 262.000,179.092 262.000 L 190.264 262.000 190.232 261.133 C 190.115 257.933,207.910 248.378,215.600 247.513 C 217.755 247.270,219.393 242.782,217.787 241.519 C 216.764 240.714,214.209 236.995,213.613 235.443 C 213.435 234.979,212.748 233.422,212.087 231.983 C 210.114 227.686,208.000 220.846,208.000 218.755 C 208.000 218.296,207.356 216.878,206.570 215.604 C 191.810 191.691,220.505 163.585,245.358 177.611 C 260.342 186.068,263.969 209.584,252.115 221.424 C 250.781 222.757,249.147 224.917,248.485 226.224 C 247.822 227.531,246.363 229.856,245.240 231.391 C 242.973 234.493,242.938 234.662,243.829 238.142 C 244.711 241.586,245.248 242.276,247.284 242.585 C 250.784 243.115,254.125 243.980,259.800 245.825 C 268.610 248.690,278.000 256.742,278.000 261.433 C 278.000 261.964,279.174 262.026,287.172 261.921 C 300.368 261.747,299.586 262.704,299.594 246.729 L 299.600 235.258 305.600 231.213 C 308.900 228.989,311.600 227.082,311.600 226.977 C 311.600 226.872,309.161 228.418,306.181 230.413 C 303.200 232.408,300.500 234.140,300.181 234.263 C 299.677 234.456,299.600 231.322,299.600 210.643 L 299.600 186.800 300.555 186.800 C 301.412 186.800,301.559 186.537,301.998 184.210 C 303.316 177.226,308.398 170.506,316.298 165.302 L 319.596 163.129 320.624 159.664 C 327.375 136.912,330.141 131.593,333.749 134.431 C 335.117 135.508,335.599 136.446,336.369 139.531 L 337.000 142.061 340.923 142.088 C 345.296 142.117,345.184 142.174,346.201 139.400 C 347.721 135.254,349.357 133.694,350.808 135.007 C 352.711 136.729,356.777 147.263,358.140 154.000 C 359.534 160.892,361.045 178.489,360.689 183.691 C 360.489 186.616,360.529 186.910,361.031 186.224 C 361.785 185.194,361.782 179.975,361.022 172.200 C 360.700 168.900,360.232 164.040,359.983 161.400 C 359.221 153.317,356.083 142.491,352.897 136.952 C 350.271 132.385,348.523 132.662,346.050 138.036 L 344.600 141.189 340.953 141.195 L 337.305 141.200 337.092 139.607 C 336.413 134.545,332.413 131.551,329.809 134.154 C 327.487 136.476,322.877 148.321,319.983 159.400 C 319.231 162.280,318.731 162.880,314.993 165.393 C 307.788 170.237,303.192 176.540,301.204 184.300 C 300.334 187.700,300.000 186.040,299.998 178.300 C 299.994 166.165,299.871 166.000,290.800 166.000 L 285.095 166.000 285.315 164.646 C 285.436 163.902,286.146 162.491,286.894 161.511 C 293.975 152.236,287.194 134.400,276.587 134.400 C 269.275 134.400,268.554 140.665,274.956 148.571 C 278.126 152.486,278.100 152.657,273.488 158.279 L 271.127 161.158 271.263 163.588 L 271.400 166.018 264.000 165.909 L 256.600 165.800 256.521 148.800 C 256.477 139.450,256.431 129.820,256.417 127.400 L 256.392 123.000 254.696 122.262 C 253.763 121.857,252.415 121.269,251.700 120.957 C 250.985 120.645,250.400 120.480,250.400 120.591 M13.746 129.400 C 14.168 137.295,14.929 146.613,15.108 146.076 C 15.328 145.415,13.987 125.059,13.706 124.800 C 13.587 124.690,13.604 126.760,13.746 129.400 M278.400 135.229 C 288.042 137.425,292.585 153.864,285.784 161.947 C 285.190 162.652,284.629 163.911,284.509 164.804 L 284.295 166.400 278.386 166.400 L 272.478 166.400 272.039 165.140 C 271.205 162.747,271.478 161.790,273.760 159.099 C 278.862 153.086,278.958 152.532,275.621 148.369 C 269.494 140.725,269.773 135.883,276.400 134.851 C 276.510 134.834,277.410 135.004,278.400 135.229 M15.320 150.000 C 15.320 151.210,15.395 151.705,15.487 151.100 C 15.578 150.495,15.578 149.505,15.487 148.900 C 15.395 148.295,15.320 148.790,15.320 150.000 M328.031 150.431 C 327.354 151.108,326.805 151.873,326.811 152.131 C 326.816 152.389,327.112 152.131,327.468 151.558 C 327.824 150.984,328.584 150.224,329.158 149.868 C 329.731 149.512,329.989 149.216,329.731 149.211 C 329.473 149.205,328.708 149.754,328.031 150.431 M332.345 149.847 C 332.853 150.202,333.612 151.057,334.033 151.747 C 334.453 152.436,334.798 152.781,334.799 152.514 C 334.800 151.870,332.441 149.200,331.870 149.200 C 331.623 149.200,331.837 149.491,332.345 149.847 M350.323 150.700 C 349.618 151.521,349.090 152.400,349.301 152.400 C 349.383 152.400,349.849 151.860,350.337 151.200 C 351.301 149.896,351.292 149.572,350.323 150.700 M330.901 153.000 C 330.905 153.880,330.987 154.193,331.083 153.695 C 331.179 153.198,331.175 152.478,331.075 152.095 C 330.975 151.713,330.896 152.120,330.901 153.000 M151.693 154.400 C 151.693 155.170,151.775 155.485,151.876 155.100 C 151.976 154.715,151.976 154.085,151.876 153.700 C 151.775 153.315,151.693 153.630,151.693 154.400 M334.854 154.269 C 334.823 155.003,334.344 156.081,333.719 156.823 C 332.796 157.920,332.765 158.028,333.507 157.565 C 334.581 156.894,335.325 155.187,335.087 153.938 C 334.946 153.196,334.898 153.265,334.854 154.269 M15.600 154.857 C 15.600 156.299,16.789 173.656,16.952 174.600 C 17.029 175.040,17.116 174.548,17.146 173.506 C 17.211 171.232,16.014 154.280,15.771 154.037 C 15.677 153.943,15.600 154.312,15.600 154.857 M352.126 154.769 C 352.167 155.301,352.470 155.810,352.800 155.899 C 353.196 156.006,353.246 155.949,352.946 155.730 C 352.697 155.549,352.393 155.040,352.272 154.600 C 352.099 153.969,352.068 154.005,352.126 154.769 M350.303 156.700 C 350.821 157.195,351.460 157.595,351.722 157.588 C 351.985 157.581,351.840 157.376,351.400 157.132 C 350.960 156.888,350.321 156.488,349.980 156.244 C 349.640 156.000,349.785 156.205,350.303 156.700 M329.905 158.283 C 330.402 158.379,331.122 158.375,331.505 158.275 C 331.887 158.175,331.480 158.096,330.600 158.101 C 329.720 158.105,329.407 158.187,329.905 158.283 M181.534 171.762 C 181.965 172.193,181.980 172.491,181.606 173.190 C 181.241 173.872,181.244 174.340,181.620 175.249 C 182.176 176.591,181.738 177.376,181.053 176.265 C 180.028 174.604,179.699 174.291,179.261 174.562 C 179.007 174.719,178.800 175.302,178.800 175.857 C 178.800 178.131,177.797 176.473,177.679 174.005 C 177.527 170.816,179.462 169.691,181.534 171.762 M186.167 171.043 C 187.222 171.447,186.877 172.000,185.571 172.000 C 184.090 172.000,184.033 173.318,185.504 173.528 C 186.725 173.702,186.642 174.400,185.400 174.400 C 184.667 174.400,184.400 174.613,184.400 175.200 C 184.400 175.822,184.667 176.000,185.600 176.000 C 186.260 176.000,186.800 176.180,186.800 176.400 C 186.800 176.620,185.990 176.800,185.000 176.800 L 183.200 176.800 183.200 174.067 C 183.200 170.747,183.801 170.135,186.167 171.043 M191.902 171.500 C 192.010 171.828,191.639 172.000,190.825 172.000 C 189.224 172.000,188.420 173.447,189.141 175.030 C 189.516 175.853,189.847 176.034,190.795 175.935 C 191.447 175.867,191.988 175.988,191.997 176.205 C 192.026 176.870,188.988 176.909,188.442 176.251 C 187.546 175.172,188.048 171.897,189.200 171.307 C 190.380 170.704,191.670 170.796,191.902 171.500 M173.818 172.182 C 174.965 173.329,175.062 174.639,174.091 175.892 C 172.398 178.078,168.800 176.959,168.800 174.246 C 168.800 171.462,171.846 170.209,173.818 172.182 M179.000 172.400 C 178.674 172.928,179.111 173.600,179.781 173.600 C 180.366 173.600,180.887 172.621,180.506 172.239 C 180.133 171.866,179.273 171.958,179.000 172.400 M17.320 177.600 C 17.320 178.810,17.395 179.305,17.487 178.700 C 17.578 178.095,17.578 177.105,17.487 176.500 C 17.395 175.895,17.320 176.390,17.320 177.600 M147.200 176.693 C 147.750 176.794,148.425 177.061,148.700 177.287 C 149.035 177.563,149.200 177.564,149.200 177.292 C 149.200 176.778,148.194 176.384,147.067 176.454 C 146.312 176.502,146.329 176.533,147.200 176.693 M124.500 178.812 C 123.306 179.292,123.356 179.536,124.600 179.298 C 125.150 179.193,125.600 178.948,125.600 178.753 C 125.600 178.559,125.555 178.411,125.500 178.425 C 125.445 178.439,124.995 178.613,124.500 178.812 M153.000 180.555 C 153.660 180.855,154.650 181.211,155.200 181.346 C 156.003 181.543,155.964 181.484,155.000 181.045 C 154.340 180.745,153.350 180.389,152.800 180.254 C 151.997 180.057,152.036 180.116,153.000 180.555 M124.060 181.877 C 124.021 182.697,123.681 183.378,123.111 183.777 C 122.622 184.120,122.414 184.400,122.649 184.400 C 123.523 184.400,124.461 182.877,124.290 181.735 C 124.122 180.616,124.119 180.618,124.060 181.877 M17.646 182.470 C 17.581 183.973,19.170 207.269,19.387 208.000 C 19.670 208.951,19.217 199.348,18.566 190.600 C 17.969 182.571,17.733 180.480,17.646 182.470 M159.200 183.200 C 160.410 183.839,161.580 184.362,161.800 184.362 C 162.020 184.362,161.210 183.839,160.000 183.200 C 158.790 182.561,157.620 182.038,157.400 182.038 C 157.180 182.038,157.990 182.561,159.200 183.200 M119.800 185.634 C 118.700 186.265,117.942 186.786,118.116 186.791 C 118.631 186.806,121.525 185.246,121.796 184.806 C 122.112 184.296,122.182 184.267,119.800 185.634 M115.600 187.800 C 114.610 188.330,113.942 188.772,114.116 188.782 C 114.541 188.806,117.600 187.234,117.600 186.992 C 117.600 186.727,117.617 186.720,115.600 187.800 M349.456 187.684 C 349.321 188.188,349.230 189.230,349.252 190.000 C 349.286 191.134,349.362 190.989,349.652 189.239 C 350.020 187.025,349.896 186.043,349.456 187.684 M110.600 189.842 C 109.280 190.385,108.740 190.718,109.400 190.583 C 110.694 190.319,114.060 188.871,113.400 188.862 C 113.180 188.859,111.920 189.300,110.600 189.842 M103.675 191.873 C 102.726 192.209,102.021 192.554,102.107 192.640 C 102.193 192.727,103.240 192.451,104.432 192.028 C 105.624 191.605,106.330 191.260,106.000 191.261 C 105.670 191.262,104.624 191.538,103.675 191.873 M347.647 196.272 C 346.033 200.894,342.148 205.912,337.762 209.042 C 334.557 211.329,334.387 211.782,337.536 209.643 C 342.112 206.536,349.032 197.297,348.340 195.220 C 348.253 194.958,347.941 195.431,347.647 196.272 M70.800 197.864 C 70.800 198.082,71.295 198.697,71.900 199.230 L 73.000 200.200 72.000 199.000 C 71.450 198.340,70.955 197.725,70.900 197.633 C 70.845 197.542,70.800 197.645,70.800 197.864 M19.720 211.600 C 19.720 212.810,19.795 213.305,19.887 212.700 C 19.978 212.095,19.978 211.105,19.887 210.500 C 19.795 209.895,19.720 210.390,19.720 211.600 M327.238 216.201 C 320.962 220.432,317.301 223.097,319.608 221.754 C 321.289 220.775,334.800 211.563,334.800 211.395 C 334.800 211.094,335.026 210.951,327.238 216.201 M20.049 216.423 C 19.996 217.524,21.032 232.685,21.564 238.600 C 22.128 244.858,22.024 239.921,21.381 229.872 C 20.791 220.651,20.155 214.228,20.049 216.423 M316.344 223.623 C 315.450 224.402,315.446 224.423,316.278 224.020 C 316.760 223.787,317.266 223.417,317.401 223.198 C 317.795 222.562,317.363 222.735,316.344 223.623 M313.493 225.414 C 312.672 225.972,312.000 226.523,312.000 226.637 C 312.000 226.934,314.379 225.499,314.880 224.900 C 315.501 224.157,315.154 224.286,313.493 225.414 M22.053 244.270 C 21.985 245.395,23.561 268.809,23.758 269.600 C 24.108 271.008,23.958 266.349,23.384 257.979 C 22.765 248.971,22.151 242.644,22.053 244.270 M257.100 263.429 C 256.275 263.970,255.600 264.509,255.600 264.628 C 255.600 264.931,257.971 263.508,258.480 262.900 C 259.058 262.209,258.831 262.296,257.100 263.429 M245.850 270.991 C 238.062 276.225,233.985 279.151,236.400 277.776 C 237.741 277.011,254.243 265.859,254.786 265.349 C 255.970 264.238,254.813 264.969,245.850 270.991 M24.120 272.800 C 24.120 274.010,24.195 274.505,24.287 273.900 C 24.378 273.295,24.378 272.305,24.287 271.700 C 24.195 271.095,24.120 271.590,24.120 272.800 M149.867 273.467 C 149.720 273.613,149.605 274.018,149.612 274.367 C 149.622 274.903,149.687 274.893,150.032 274.300 C 150.256 273.915,150.642 273.600,150.888 273.600 C 151.135 273.600,151.711 273.915,152.169 274.300 C 152.999 274.999,152.999 274.999,152.238 274.100 C 151.495 273.222,150.403 272.931,149.867 273.467 M96.134 277.600 C 96.134 279.250,96.205 279.925,96.291 279.100 C 96.378 278.275,96.378 276.925,96.291 276.100 C 96.205 275.275,96.134 275.950,96.134 277.600 M157.375 276.900 L 156.200 278.200 157.598 277.000 C 158.367 276.340,159.072 275.755,159.165 275.700 C 159.257 275.645,159.157 275.600,158.942 275.600 C 158.726 275.600,158.021 276.185,157.375 276.900 M149.724 278.200 C 149.726 279.520,149.801 280.012,149.890 279.293 C 149.979 278.574,149.977 277.494,149.886 276.893 C 149.795 276.292,149.722 276.880,149.724 278.200 M24.406 277.833 C 24.423 282.647,26.533 307.774,26.962 308.283 C 27.001 308.328,28.240 307.227,29.716 305.836 C 33.341 302.419,40.324 297.805,49.640 292.673 C 50.513 292.192,50.797 291.845,50.480 291.649 C 49.676 291.153,50.799 290.068,52.800 289.406 L 54.600 288.811 52.810 289.025 C 50.934 289.248,49.782 289.998,49.383 291.253 C 49.253 291.664,48.890 292.000,48.578 292.000 C 45.565 292.000,37.000 295.820,30.800 299.929 C 28.490 301.460,26.558 302.507,26.506 302.256 C 26.455 302.005,26.049 296.145,25.605 289.232 C 25.161 282.320,24.708 276.575,24.599 276.466 C 24.490 276.356,24.403 276.972,24.406 277.833 M229.225 282.211 C 223.921 285.800,220.776 288.128,222.752 287.003 C 224.081 286.246,234.657 279.064,235.186 278.559 C 236.329 277.468,235.327 278.082,229.225 282.211 M173.340 280.260 C 173.879 280.416,174.028 280.743,173.889 281.467 C 173.767 282.109,173.837 282.323,174.087 282.073 C 174.705 281.455,174.265 280.217,173.395 280.128 C 172.698 280.056,172.691 280.072,173.340 280.260 M217.177 290.313 C 211.984 293.844,189.868 308.733,172.600 320.322 C 162.678 326.981,157.900 330.371,160.400 328.979 C 160.730 328.795,164.510 326.281,168.800 323.391 C 192.410 307.491,198.527 303.369,205.800 298.456 C 210.200 295.484,215.645 291.812,217.900 290.296 C 221.489 287.883,222.366 287.200,221.877 287.200 C 221.809 287.200,219.694 288.601,217.177 290.313 M150.054 289.200 C 150.019 289.750,149.896 290.650,149.783 291.200 L 149.577 292.200 150.007 291.215 C 150.243 290.674,150.365 289.774,150.278 289.215 L 150.120 288.200 150.054 289.200 M65.600 289.200 C 66.150 289.376,67.050 289.520,67.600 289.520 L 68.600 289.520 67.600 289.200 C 67.050 289.024,66.150 288.880,65.600 288.880 L 64.600 288.880 65.600 289.200 M148.832 293.800 C 148.814 294.021,147.315 295.821,145.500 297.800 C 141.595 302.060,139.336 305.404,133.405 315.704 C 131.284 319.388,127.853 324.453,126.341 326.134 L 124.481 328.200 117.741 321.515 C 105.289 309.165,83.799 292.868,82.146 294.521 C 82.024 294.642,82.887 295.198,84.063 295.756 C 92.016 299.532,107.165 311.483,118.931 323.263 C 124.699 329.038,124.368 328.861,126.121 327.100 C 127.808 325.407,134.800 315.013,134.800 314.199 C 134.800 314.036,139.239 306.782,141.343 303.506 C 143.111 300.754,148.575 295.202,149.524 295.194 C 149.946 295.190,150.034 295.077,149.760 294.894 C 149.518 294.732,149.217 294.330,149.092 294.000 C 148.966 293.670,148.849 293.580,148.832 293.800 M158.973 298.706 C 158.684 298.905,158.645 300.287,158.853 303.000 C 159.443 310.702,157.171 321.105,152.369 332.685 C 152.076 333.391,151.948 334.081,152.084 334.218 C 152.328 334.461,159.600 329.776,159.600 329.376 C 159.600 329.105,158.718 329.627,155.600 331.745 C 152.478 333.866,152.509 333.879,153.720 330.943 C 157.626 321.469,159.661 311.729,159.496 303.300 C 159.443 300.606,159.400 298.403,159.400 298.406 C 159.400 298.410,159.208 298.544,158.973 298.706 M98.171 350.700 C 98.594 354.604,99.193 364.058,99.196 366.900 C 99.201 370.402,98.860 370.492,107.496 364.704 C 115.014 359.663,115.465 359.211,113.854 358.322 C 107.664 354.908,103.891 352.484,100.744 349.900 C 98.191 347.803,97.868 347.904,98.171 350.700 M106.000 354.485 C 107.210 355.296,109.460 356.666,111.000 357.531 C 112.540 358.396,113.800 359.284,113.800 359.504 C 113.800 360.163,99.986 369.240,99.817 368.691 C 99.735 368.421,99.562 365.230,99.435 361.600 C 99.308 357.970,99.084 353.669,98.939 352.042 L 98.674 349.085 101.237 351.048 C 102.647 352.128,104.790 353.675,106.000 354.485 " stroke="none" fill="#8c8cca" fill-rule="evenodd"></path><path id="path4" d="M73.239 105.706 C 70.390 107.170,70.614 103.414,70.481 151.929 C 70.356 197.753,70.345 197.457,72.225 199.224 C 73.234 200.173,73.461 200.204,80.531 200.329 L 87.800 200.458 90.800 198.458 C 92.450 197.358,94.916 195.905,96.280 195.228 L 98.760 193.998 97.733 192.899 C 93.793 188.684,91.285 184.120,89.544 178.000 C 87.166 169.636,90.966 154.548,96.739 149.438 C 97.943 148.372,97.828 147.922,96.010 146.577 C 83.254 137.136,90.622 115.655,106.634 115.606 C 108.644 115.600,108.684 115.576,110.173 113.413 C 111.001 112.211,113.011 109.961,114.640 108.414 C 116.268 106.868,117.600 105.512,117.600 105.401 C 117.600 104.917,74.194 105.215,73.239 105.706 M156.000 105.407 C 156.000 105.521,157.399 107.006,159.110 108.707 C 164.222 113.792,167.530 119.843,168.477 125.843 C 168.892 128.475,169.026 128.740,170.277 129.414 C 177.989 133.567,182.760 144.817,181.403 155.646 C 181.150 157.662,181.232 158.067,182.206 159.610 C 182.803 160.555,183.803 162.469,184.429 163.864 L 185.567 166.400 199.951 166.400 C 207.862 166.400,214.619 166.291,214.967 166.157 C 215.536 165.939,215.600 162.996,215.600 136.986 L 215.600 108.057 214.253 106.628 L 212.906 105.200 184.453 105.200 C 168.804 105.200,156.000 105.293,156.000 105.407 M142.000 128.777 C 137.068 130.421,134.111 132.345,128.769 137.385 C 126.643 139.392,123.686 141.710,122.123 142.596 C 120.574 143.474,119.148 144.554,118.953 144.996 C 118.567 145.875,117.037 146.276,116.278 145.697 C 115.260 144.921,111.996 146.324,112.032 147.523 C 112.088 149.432,113.042 153.755,113.762 155.361 C 114.147 156.219,114.377 157.246,114.273 157.642 C 114.170 158.038,114.201 158.415,114.342 158.481 C 114.484 158.546,115.309 159.997,116.175 161.705 C 118.098 165.494,120.977 168.807,123.636 170.290 C 125.922 171.565,126.120 172.050,125.934 175.917 C 125.803 178.654,125.817 178.700,126.686 178.368 C 127.978 177.875,128.011 178.025,128.608 187.114 C 128.907 191.671,129.170 195.490,129.193 195.600 C 129.288 196.051,130.818 192.710,132.581 188.200 C 137.777 174.914,136.631 176.309,142.217 176.474 L 146.488 176.600 146.244 174.400 C 146.109 173.190,145.708 170.385,145.352 168.167 L 144.705 164.134 146.501 161.767 C 147.488 160.465,148.972 158.050,149.797 156.400 C 150.623 154.750,151.456 153.340,151.649 153.267 C 152.134 153.083,152.092 150.504,151.600 150.200 C 150.973 149.812,151.132 147.325,151.829 146.629 C 153.257 145.200,155.515 146.839,155.101 149.004 C 154.948 149.806,155.016 149.918,155.444 149.563 C 158.049 147.401,155.528 141.650,152.446 142.724 C 149.887 143.616,145.600 134.614,145.600 128.348 C 145.600 127.824,144.444 127.962,142.000 128.777 M141.746 138.829 C 142.326 139.285,142.800 139.825,142.800 140.029 C 142.800 140.233,142.465 140.065,142.055 139.655 C 140.829 138.429,138.670 138.243,136.551 139.180 C 135.062 139.839,134.808 139.873,135.238 139.354 C 136.520 137.810,140.085 137.522,141.746 138.829 M127.177 146.081 C 126.993 148.216,126.583 150.376,126.266 150.881 C 125.949 151.387,125.472 152.484,125.207 153.321 C 124.941 154.157,124.518 154.773,124.266 154.689 C 123.737 154.512,123.869 151.603,124.433 151.020 C 124.635 150.811,124.800 149.866,124.800 148.920 C 124.800 147.968,124.991 147.200,125.227 147.200 C 125.478 147.200,125.545 146.856,125.389 146.365 C 124.927 144.909,125.536 142.800,126.418 142.800 C 126.848 142.800,127.200 142.590,127.200 142.333 C 127.200 142.077,127.270 141.942,127.355 142.033 C 127.440 142.125,127.360 143.947,127.177 146.081 M139.584 143.171 C 140.412 144.718,138.738 146.423,137.200 145.600 C 136.313 145.125,136.136 143.624,136.880 142.880 C 137.614 142.146,139.123 142.308,139.584 143.171 M340.160 157.665 C 339.889 158.103,341.312 159.600,342.000 159.600 C 342.171 159.600,342.720 159.269,343.219 158.865 C 344.426 157.888,343.922 157.200,342.000 157.200 C 341.146 157.200,340.318 157.409,340.160 157.665 M169.616 172.075 C 168.413 173.366,168.540 175.337,169.894 176.402 C 172.790 178.680,176.416 174.780,173.818 172.182 C 172.569 170.933,170.724 170.886,169.616 172.075 M209.400 205.203 C 208.885 205.426,209.313 205.467,210.600 205.318 C 211.700 205.191,212.675 205.023,212.767 204.944 C 213.114 204.645,210.164 204.872,209.400 205.203 M219.800 206.635 C 221.827 207.246,223.790 207.203,231.200 206.388 C 233.669 206.117,233.421 206.097,229.800 206.280 C 223.064 206.618,221.958 206.622,219.800 206.316 L 217.800 206.032 219.800 206.635 M210.126 207.176 C 207.836 208.168,207.771 214.407,210.038 215.620 C 210.671 215.959,210.632 215.788,209.796 214.556 C 206.349 209.477,211.015 205.485,217.306 208.131 C 221.599 209.936,218.572 216.675,213.644 216.285 C 212.095 216.163,211.306 216.222,211.644 216.435 C 215.119 218.636,219.913 214.837,219.528 210.188 C 219.319 207.666,213.384 205.765,210.126 207.176 M239.998 207.595 C 241.050 208.094,242.875 208.515,244.398 208.610 C 246.899 208.766,246.930 208.756,245.200 208.374 C 244.210 208.156,242.590 207.782,241.600 207.544 C 240.610 207.306,239.440 207.028,239.000 206.926 C 238.560 206.824,239.009 207.125,239.998 207.595 M228.777 207.979 C 226.282 208.736,225.995 209.090,226.072 211.314 L 226.144 213.400 226.294 211.495 C 226.664 206.795,237.399 206.813,238.115 211.514 L 238.280 212.600 238.340 211.554 C 238.509 208.610,233.217 206.632,228.777 207.979 M206.493 210.000 C 206.493 210.770,206.575 211.085,206.676 210.700 C 206.776 210.315,206.776 209.685,206.676 209.300 C 206.575 208.915,206.493 209.230,206.493 210.000 M248.400 210.000 C 247.647 210.589,246.757 210.786,244.800 210.797 C 241.131 210.817,240.494 211.057,240.174 212.541 C 239.187 217.104,237.109 218.802,232.513 218.798 C 227.252 218.793,225.656 217.641,224.651 213.117 C 223.828 209.414,222.169 209.483,220.426 213.293 C 218.372 217.778,216.174 218.980,211.810 218.002 C 209.185 217.414,208.431 216.944,207.746 215.469 C 207.323 214.558,207.230 214.482,207.417 215.200 C 207.560 215.750,207.699 216.506,207.725 216.881 C 207.750 217.255,207.832 217.501,207.906 217.427 C 207.980 217.353,208.934 217.632,210.025 218.046 C 215.016 219.943,218.083 218.758,220.532 213.985 C 222.683 209.795,223.419 209.975,224.754 215.017 C 225.823 219.052,234.094 221.088,237.563 218.170 C 238.759 217.163,240.800 213.395,240.800 212.193 C 240.800 211.435,241.758 211.202,244.933 211.186 C 247.374 211.173,247.978 211.025,249.000 210.188 C 250.414 209.029,249.862 208.856,248.400 210.000 M237.442 214.117 C 236.688 218.138,229.244 218.721,227.236 214.917 C 226.796 214.083,226.427 213.634,226.418 213.920 C 226.304 217.257,233.815 219.416,236.562 216.836 C 237.503 215.952,238.370 213.436,237.896 212.963 C 237.786 212.853,237.582 213.372,237.442 214.117 M216.700 226.032 C 212.739 228.339,221.390 233.259,225.847 231.235 C 230.936 228.924,229.711 226.593,223.094 225.996 C 217.945 225.532,217.555 225.534,216.700 226.032 M227.500 227.013 C 230.954 227.790,225.381 231.958,221.639 231.397 C 218.577 230.938,214.921 226.666,217.300 226.328 C 218.327 226.182,226.140 226.707,227.500 227.013 M245.486 242.809 C 246.522 246.771,234.964 253.985,227.564 253.996 C 223.096 254.002,216.800 250.522,216.800 248.046 C 216.800 245.239,201.785 251.410,193.801 257.498 C 187.879 262.015,184.790 261.600,224.347 261.600 C 243.270 261.600,258.836 261.735,258.938 261.900 C 259.319 262.518,278.000 262.026,278.000 261.398 C 278.000 259.855,274.144 254.505,271.032 251.731 C 267.217 248.332,259.361 245.067,250.600 243.241 C 249.500 243.012,247.858 242.664,246.952 242.468 C 245.487 242.151,245.324 242.189,245.486 242.809 M91.674 256.312 C 87.706 258.902,87.456 259.398,87.714 264.160 C 87.895 267.513,87.845 267.810,86.853 269.240 C 85.214 271.606,84.939 271.481,84.443 268.149 C 83.285 260.358,77.856 257.298,77.290 264.118 C 77.099 266.427,77.722 268.365,79.471 270.898 C 81.313 273.565,78.194 279.644,71.389 286.651 C 69.814 288.273,68.760 289.600,69.048 289.600 C 69.982 289.600,73.306 290.857,74.772 291.765 C 76.184 292.639,81.158 294.415,82.108 294.384 C 82.379 294.375,83.158 293.160,83.839 291.684 C 85.028 289.108,85.165 288.970,87.239 288.253 C 95.759 285.309,95.743 285.333,96.000 274.972 L 96.200 266.907 97.514 265.680 C 99.075 264.223,99.006 263.321,97.097 260.200 C 96.425 259.100,95.678 257.287,95.437 256.171 L 95.000 254.141 91.674 256.312 M150.194 274.010 C 149.713 274.788,149.601 284.608,150.041 287.415 C 150.414 289.792,150.383 290.467,149.841 291.763 C 148.819 294.210,148.973 294.710,150.900 295.208 C 151.835 295.450,152.885 295.729,153.233 295.829 C 153.581 295.930,154.908 296.639,156.181 297.406 C 159.103 299.165,159.070 299.169,160.036 296.916 C 160.488 295.862,161.847 294.045,163.122 292.793 C 164.375 291.561,166.033 289.844,166.807 288.977 C 167.581 288.110,169.516 286.226,171.107 284.791 C 175.699 280.649,174.743 278.571,169.915 282.200 C 167.237 284.213,166.404 284.426,166.391 283.100 C 166.386 282.574,165.472 281.215,164.191 279.826 C 162.986 278.521,162.000 277.120,162.000 276.713 C 162.000 274.570,159.622 275.153,156.524 278.055 C 153.911 280.503,153.718 280.487,153.382 277.794 C 153.006 274.789,151.107 272.533,150.194 274.010 M57.513 288.695 C 58.676 288.776,60.476 288.776,61.513 288.693 C 62.551 288.611,61.600 288.545,59.400 288.546 C 57.200 288.547,56.351 288.614,57.513 288.695 " stroke="none" fill="#cd9b84" fill-rule="evenodd"></path></g></svg>