<?xml version="1.0" standalone="no"?>
<!DOCTYPE svg PUBLIC "-//W3C//DTD SVG 20010904//EN"
 "http://www.w3.org/TR/2001/REC-SVG-20010904/DTD/svg10.dtd">
<svg version="1.0" xmlns="http://www.w3.org/2000/svg"
 width="820.000000pt" height="844.000000pt" viewBox="0 0 820.000000 844.000000"
 preserveAspectRatio="xMidYMid meet">
<metadata>
Created by potrace 1.16, written by Peter Selinger 2001-2019
</metadata>
<g transform="translate(0.000000,844.000000) scale(0.100000,-0.100000)"
fill="#000000" stroke="none">
<path d="M630 8015 c-248 -56 -439 -271 -456 -515 -5 -66 360 -5257 370 -5267
1 -2 38 20 82 49 114 75 207 121 303 148 63 19 86 30 94 47 5 12 25 27 44 34
35 11 275 14 318 3 20 -5 33 3 71 42 91 96 194 244 194 280 0 10 -14 39 -30
63 -58 86 -50 201 14 201 45 0 85 -69 101 -175 l7 -50 30 35 c28 34 29 38 23
105 -9 95 1 115 82 169 l68 45 8 -32 c5 -18 22 -57 38 -88 35 -69 36 -93 5
-122 -24 -22 -25 -28 -28 -189 -3 -161 -4 -167 -28 -193 -25 -27 -83 -56 -152
-77 -34 -10 -44 -20 -69 -69 l-29 -58 63 -33 c160 -85 441 -309 660 -526 l139
-137 43 49 c24 26 97 139 163 250 138 229 147 242 230 331 76 82 97 136 84
221 -11 71 -4 265 10 279 16 17 56 -40 63 -90 4 -25 11 -45 15 -45 4 0 27 20
51 45 38 39 49 45 79 43 28 -2 36 -8 38 -26 2 -13 21 -41 43 -62 26 -25 39
-46 39 -64 0 -26 1 -26 28 -12 15 8 45 28 66 45 22 17 44 30 50 28 32 -11 9
-45 -118 -170 -169 -167 -175 -178 -173 -348 1 -146 -20 -252 -89 -448 -24
-69 -41 -127 -39 -129 2 -2 493 326 1092 730 l1088 733 -947 5 -948 5 -27 28
-28 27 -3 600 -2 600 -920 0 c-632 0 -926 3 -943 11 -54 25 -52 -18 -55 951
-3 999 -5 955 62 983 29 12 112 15 482 15 l446 0 -71 -66 c-40 -37 -85 -86
-101 -109 -28 -41 -30 -42 -101 -48 -94 -8 -163 -42 -228 -112 -71 -79 -94
-145 -89 -260 4 -72 9 -100 30 -140 29 -55 70 -102 110 -129 l26 -17 -49 -65
c-60 -80 -80 -119 -109 -209 -47 -153 -35 -327 35 -473 32 -68 119 -192 135
-192 33 0 336 111 415 153 l100 52 3 47 c2 36 8 48 23 53 16 6 19 16 19 79 0
73 0 74 -32 87 -51 21 -133 112 -170 186 -25 51 -37 68 -50 65 -16 -3 -18 5
-18 55 0 32 -3 88 -6 125 l-7 66 34 10 c19 5 49 7 67 4 27 -3 34 -1 38 15 3
10 30 32 61 48 31 16 99 69 151 117 74 69 115 98 186 133 50 24 105 47 122 50
l31 6 7 -65 c8 -81 28 -138 69 -199 30 -45 34 -47 67 -42 43 7 65 -12 75 -65
5 -29 1 -43 -24 -80 -16 -25 -32 -62 -36 -82 -9 -48 -35 -52 -35 -6 0 29 -4
25 -34 -37 -18 -39 -50 -92 -70 -118 l-37 -49 17 -128 c16 -126 17 -129 43
-132 17 -2 27 -11 31 -27 4 -19 22 -29 98 -56 51 -18 117 -47 147 -64 l54 -30
3 164 3 165 28 27 27 28 190 5 190 5 -25 53 c-14 30 -34 67 -46 83 -19 27 -20
34 -9 103 11 74 9 102 -12 201 -23 108 -122 249 -215 306 -18 11 -33 28 -33
38 0 40 -33 142 -71 220 -33 67 -58 101 -126 167 l-84 84 581 0 c622 0 623 0
650 -49 6 -13 10 -226 10 -615 l0 -596 415 0 415 0 -2 442 -3 442 -2144 1038
c-1179 571 -2167 1045 -2195 1053 -76 23 -200 27 -276 10z"/>
<path d="M6770 5680 c-45 -45 -115 -220 -180 -450 -18 -63 -39 -123 -48 -133
-9 -10 -47 -38 -84 -63 -132 -88 -241 -238 -268 -369 -9 -44 -15 -55 -31 -55
-19 0 -19 -13 -19 -491 0 -317 3 -489 10 -487 5 2 184 120 397 263 432 290
495 342 556 463 32 65 44 105 62 215 l6 37 109 0 109 0 7 46 c7 47 5 74 -20
374 -22 247 -64 416 -141 571 -45 89 -59 99 -90 68 -14 -13 -35 -50 -48 -82
l-24 -59 -84 0 -84 0 -7 41 c-8 46 -22 77 -51 109 -25 27 -51 28 -77 2z m65
-326 c63 -68 25 -164 -65 -164 -32 0 -80 48 -80 81 0 92 90 143 145 83z m439
4 c21 -30 21 -106 -1 -130 -23 -26 -69 -23 -98 7 -35 34 -32 70 9 111 39 39
68 43 90 12z"/>
<path d="M5589 5641 c-53 -54 -34 -125 69 -255 55 -70 52 -89 -29 -185 -47
-56 -59 -78 -59 -105 0 -66 -1 -66 140 -66 127 0 127 0 123 23 -3 14 11 45 41
90 50 76 62 124 53 218 -7 75 -52 173 -108 234 -55 59 -86 75 -149 75 -44 0
-56 -5 -81 -29z"/>
<path d="M4612 4865 c-143 -31 -276 -122 -355 -243 -65 -99 -89 -169 -95 -285
-6 -121 7 -185 58 -292 21 -44 48 -120 59 -169 30 -122 125 -330 172 -376 l37
-35 -24 -45 c-13 -25 -23 -50 -24 -57 0 -24 63 -83 118 -109 49 -23 65 -26
129 -22 95 6 215 63 288 137 55 56 67 78 53 104 -5 10 -17 50 -27 89 l-19 72
39 51 c20 27 51 75 67 105 16 30 52 78 80 107 61 62 96 128 124 231 28 106 28
253 -1 342 -92 290 -384 459 -679 395z m-177 -642 c50 -11 124 -16 265 -18
154 -1 202 -4 230 -17 19 -9 64 -19 100 -22 84 -9 99 -18 67 -39 -15 -10 -52
-17 -92 -19 l-66 -3 -19 -55 c-28 -83 -54 -100 -153 -100 -104 0 -141 19 -157
82 -29 107 -48 115 -84 36 -13 -29 -35 -65 -49 -80 -23 -25 -33 -28 -84 -27
-89 0 -124 16 -140 63 -7 22 -16 69 -19 106 -7 72 -1 84 53 100 42 13 71 11
148 -7z m233 -434 c31 -12 27 -32 -13 -68 -29 -25 -44 -31 -83 -31 -73 0 -155
63 -138 106 5 13 20 15 108 8 57 -3 113 -10 126 -15z"/>
<path d="M4296 4174 c-25 -25 -21 -107 7 -140 32 -37 110 -45 148 -15 28 22
57 110 44 132 -23 37 -169 54 -199 23z"/>
<path d="M4690 4167 c-41 -11 -45 -15 -48 -47 -9 -96 37 -143 135 -138 69 4
94 30 96 102 2 41 -2 51 -23 67 -32 24 -103 32 -160 16z"/>
<path d="M2024 1219 c3 -41 9 -136 13 -211 3 -76 9 -138 12 -138 3 0 73 45
155 99 145 97 148 99 125 113 -13 8 -58 35 -99 59 -41 24 -105 68 -144 97
l-69 54 7 -73z"/>
</g>
</svg>
